<?xml version="1.0" encoding="UTF-8"?>
<svg id="Layer_2" data-name="Layer 2" xmlns="http://www.w3.org/2000/svg" viewBox="0 0 24 26">
  <defs>
    <style>
      .cls-1 {
        fill: #000;
        stroke-width: 0px;
      }
    </style>
  </defs>
  <path class="cls-1" d="M9.91,4.18s.02.01.03.02c.32.09.5.32.5.66,0,1.1,0,2.19,0,3.29,0,.04,0,.07,0,.11.26.08.53.16.79.25,1.63.53,3.22,1.13,4.74,1.94,1.11.59,2.14,1.29,3.06,2.14,1.15,1.07,2.05,2.32,2.75,3.71.69,1.36,1.19,2.79,1.62,4.25.11.37.22.75.32,1.13.11.42-.21.82-.64.81-.18,0-.33-.08-.45-.21-.58-.58-1.19-1.13-1.84-1.62-1.73-1.32-3.64-2.25-5.75-2.76-.86-.21-1.74-.33-2.63-.38-.61-.03-1.23-.03-1.84,0-.03,0-.07,0-.11.01,0,.04,0,.07,0,.11,0,1.07,0,2.14,0,3.22,0,.38-.3.67-.67.65-.16,0-.29-.07-.41-.18-1.2-1.08-2.41-2.16-3.61-3.24-1.65-1.49-3.29-2.98-4.94-4.46-.11-.1-.22-.19-.31-.3-.08-.09-.15-.21-.22-.31,0-.13,0-.26,0-.39.04-.04.09-.08.12-.14.06-.14.16-.23.27-.33,1.11-1.01,2.22-2.01,3.34-3.02,1.74-1.57,3.48-3.13,5.22-4.7.14-.12.27-.24.46-.29.07,0,.15,0,.22,0Z"/>
</svg>