<svg xmlns="http://www.w3.org/2000/svg" width="27" height="28.153" viewBox="0 0 27 28.153">
  <path id="home" d="M8.759,24.4V20.416a1.865,1.865,0,0,1,1.873-1.845h3.8a1.866,1.866,0,0,1,1.886,1.845h0v4A1.6,1.6,0,0,0,17.9,26H20.43A4.52,4.52,0,0,0,25,21.53h0V10.189a3.159,3.159,0,0,0-1.266-2.476L15.076.891a4.225,4.225,0,0,0-5.19,0L1.266,7.725A3.134,3.134,0,0,0,0,10.2V21.53A4.52,4.52,0,0,0,4.57,26H7.1a1.615,1.615,0,0,0,1.633-1.6h0" transform="translate(1 1.153)" fill="none" stroke="#5f5c71" stroke-linecap="round" stroke-linejoin="round" stroke-width="2"/>
</svg>
