<svg xmlns="http://www.w3.org/2000/svg" width="24" height="26" viewBox="0 0 24 26">
  <path id="profile" d="M8.773,17.615a46.587,46.587,0,0,1,6.488,0,30.348,30.348,0,0,1,3.5.382c2.5.44,4.14,1.157,4.84,2.313a2.824,2.824,0,0,1,0,2.88c-.7,1.157-2.271,1.92-4.866,2.313a28.835,28.835,0,0,1-3.5.393c-1.09.1-2.18.1-3.283.1H9.967a10.9,10.9,0,0,0-1.207-.069,27.5,27.5,0,0,1-3.5-.382c-2.5-.416-4.14-1.157-4.84-2.313A2.839,2.839,0,0,1,0,21.779,2.8,2.8,0,0,1,.4,20.31C1.09,19.153,2.725,18.4,5.256,18A29.391,29.391,0,0,1,8.773,17.615ZM12,0c4.35,0,7.877,3.143,7.877,7.02s-3.527,7.02-7.877,7.02S4.127,10.9,4.127,7.02,7.654,0,12,0Z" fill="#5f5c71"/>
</svg>
