<svg xmlns="http://www.w3.org/2000/svg" width="25" height="26" viewBox="0 0 25 26">
  <g id="write" transform="translate(-3.379 -3.131)">
    <path id="Path_7" data-name="Path 7" d="M19.651,3.909a6.344,6.344,0,0,0-2.713-.771,6.2,6.2,0,0,0-5.7,3.005L4.4,17.793a7.317,7.317,0,0,0-1,4.278l.317,4.206A2.83,2.83,0,0,0,5.2,28.538a3.022,3.022,0,0,0,2.766.07l3.9-1.891a7.688,7.688,0,0,0,3.286-3.02l6.834-11.648a5.777,5.777,0,0,0-.256-6.282A6.109,6.109,0,0,0,19.651,3.909Zm-.287,6.7h0L12.528,22.26a4.723,4.723,0,0,1-2.02,1.856L6.716,26.064,6.4,21.858A4.511,4.511,0,0,1,7.01,19.23l6.839-11.65A3.159,3.159,0,0,1,16.6,6.04q.088,0,.176,0a3.264,3.264,0,0,1,1.392.4,3.144,3.144,0,0,1,1.061.951A2.962,2.962,0,0,1,19.364,10.611Zm9.014,17.066a1.48,1.48,0,0,0-1.5-1.455H17.85a1.456,1.456,0,1,0,0,2.91h9.025A1.48,1.48,0,0,0,28.379,27.676Z" transform="translate(0)" fill="#5f5c71"/>
  </g>
</svg>
